<?xml version="1.0" encoding="UTF-8"?>
<svg width="120px" height="120px" viewBox="0 0 120 120" version="1.1" xmlns="http://www.w3.org/2000/svg" xmlns:xlink="http://www.w3.org/1999/xlink">
    <g id="x-orange-only" stroke="none" stroke-width="1" fill="none" fill-rule="evenodd">
        <g id="transformed-x" transform="translate(11.000000, 4.000000)" fill="#2D76EE" fill-rule="nonzero">
            <path d="M48.33,-9 C44.2817528,-9 41,-5.81702439 41,-1.890625 L41,113.890625 C41,117.817024 44.2817528,121 48.33,121 C52.3782472,121 55.66,117.817024 55.66,113.890625 L55.66,-1.890625 C55.66,-5.81702439 52.3782472,-9 48.33,-9 Z" id="Rectangle" transform="translate(48.330000, 56.000000) rotate(39.000000) translate(-48.330000, -56.000000) "></path>
            <path d="M21.3650415,-0.024456932 L21.3004901,-0.0244818081 C21.2279559,-0.0267469236 21.1553907,-0.0278796884 21.0828211,-0.0278796884 C17.2313729,-0.0278796884 14.1091572,3.09433598 14.1091572,6.94578419 L14.1091572,42.6433566 C14.1091572,43.9629258 14.4574436,45.2291038 15.109105,46.3415593 C15.7453471,47.4276925 16.653585,48.3359305 17.7397182,48.9721726 C18.8521737,49.6238339 20.1183517,49.9721203 21.437921,49.9721203 C22.7574902,49.9721203 24.0236682,49.6238339 25.1361237,48.9721726 C26.2222569,48.3359305 27.1304949,47.4276925 27.7667369,46.3415593 C28.4183983,45.2291038 28.7666847,43.9629258 28.7666847,42.6433566 L28.7666847,7.15518837 C28.7666847,7.08228614 28.7655748,7.00938812 28.7633555,6.93651968 C28.6425881,2.97131107 25.3302501,-0.145224318 21.3650415,-0.024456932 Z" id="Rectangle" transform="translate(21.437921, 24.972120) scale(-1, 1) rotate(39.000000) translate(-21.437921, -24.972120) "></path>
            <path d="M74.3650415,62.9755431 L74.3004901,62.9755182 C74.2279559,62.9732531 74.1553907,62.9721203 74.0828211,62.9721203 C70.2313729,62.9721203 67.1091572,66.094336 67.1091572,69.9457842 L67.1091572,105.643357 C67.1091572,106.962926 67.4574436,108.229104 68.109105,109.341559 C68.7453471,110.427693 69.653585,111.33593 70.7397182,111.972173 C71.8521737,112.623834 73.1183517,112.97212 74.437921,112.97212 C75.7574902,112.97212 77.0236682,112.623834 78.1361237,111.972173 C79.2222569,111.33593 80.1304949,110.427693 80.7667369,109.341559 C81.4183983,108.229104 81.7666847,106.962926 81.7666847,105.643357 L81.7666847,70.1551884 C81.7666847,70.0822861 81.7655748,70.0093881 81.7633555,69.9365197 C81.6425881,65.9713111 78.3302501,62.8547757 74.3650415,62.9755431 Z" id="Rectangle" transform="translate(74.437921, 87.972120) scale(1, -1) rotate(39.000000) translate(-74.437921, -87.972120) "></path>
        </g>
    </g>
</svg>
